G04 #@! TF.FileFunction,Copper,L1,Top,Signal*
%FSLAX46Y46*%
G04 Gerber Fmt 4.6, Leading zero omitted, Abs format (unit mm)*
G04 Created by KiCad (PCBNEW 4.0.6) date 07/26/17 22:00:31*
%MOMM*%
%LPD*%
G01*
G04 APERTURE LIST*
%ADD10C,0.100000*%
%ADD11R,1.060000X0.650000*%
%ADD12R,1.250000X1.000000*%
%ADD13R,1.700000X1.700000*%
%ADD14O,1.700000X1.700000*%
%ADD15R,2.200000X3.900000*%
%ADD16R,0.700000X1.300000*%
%ADD17R,0.900000X1.200000*%
%ADD18C,0.685800*%
%ADD19C,0.254000*%
%ADD20C,0.152400*%
G04 APERTURE END LIST*
D10*
D11*
X105400000Y-94090000D03*
X105400000Y-95040000D03*
X105400000Y-95990000D03*
X107600000Y-95990000D03*
X107600000Y-94090000D03*
X107600000Y-95040000D03*
D12*
X110000000Y-95040000D03*
X110000000Y-97040000D03*
X110000000Y-91230000D03*
X110000000Y-93230000D03*
D13*
X113000000Y-91230000D03*
D14*
X113000000Y-93770000D03*
D15*
X109400000Y-88250000D03*
X105600000Y-88250000D03*
D16*
X105550000Y-98000000D03*
X107450000Y-98000000D03*
D13*
X102000000Y-89960000D03*
D14*
X102000000Y-92500000D03*
X102000000Y-95040000D03*
D17*
X108150000Y-92000000D03*
X104850000Y-92000000D03*
D18*
X108700000Y-95990000D03*
D19*
X109400000Y-88250000D02*
X109400000Y-89000000D01*
X109400000Y-89000000D02*
X106910000Y-91490000D01*
X106910000Y-93610000D02*
X107390000Y-94090000D01*
X106910000Y-91490000D02*
X106910000Y-93610000D01*
X107390000Y-94090000D02*
X107600000Y-94090000D01*
X109400000Y-88250000D02*
X110000000Y-88850000D01*
X110000000Y-88850000D02*
X110000000Y-91230000D01*
X102000000Y-89960000D02*
X102000000Y-86780000D01*
X103140000Y-85640000D02*
X108980000Y-85640000D01*
X108980000Y-85640000D02*
X109550000Y-86210000D01*
X109550000Y-86210000D02*
X109550000Y-88300000D01*
X102000000Y-86780000D02*
X103140000Y-85640000D01*
X109550000Y-90020000D02*
X109550000Y-88300000D01*
X109550000Y-86420000D02*
X109550000Y-88700000D01*
X110000000Y-97040000D02*
X110000000Y-97600000D01*
X109600000Y-98000000D02*
X107500000Y-98000000D01*
X110000000Y-97600000D02*
X109600000Y-98000000D01*
X110000000Y-93230000D02*
X110820000Y-93230000D01*
X110850000Y-97040000D02*
X110000000Y-97040000D01*
X111240000Y-96650000D02*
X110850000Y-97040000D01*
X111240000Y-93650000D02*
X111240000Y-96650000D01*
X110820000Y-93230000D02*
X111240000Y-93650000D01*
X102000000Y-95040000D02*
X105400000Y-95040000D01*
X108150000Y-92150000D02*
X108150000Y-92000000D01*
X108660000Y-92660000D02*
X108150000Y-92150000D01*
X108660000Y-93800000D02*
X108660000Y-92660000D01*
X109900000Y-95040000D02*
X108660000Y-93800000D01*
X110000000Y-95040000D02*
X109900000Y-95040000D01*
X113000000Y-91230000D02*
X112000000Y-92230000D01*
X112000000Y-92230000D02*
X108380000Y-92230000D01*
X108380000Y-92230000D02*
X108150000Y-92000000D01*
X107600000Y-95040000D02*
X110000000Y-95040000D01*
X113000000Y-93770000D02*
X113000000Y-97150000D01*
X105550000Y-99040000D02*
X105550000Y-98000000D01*
X105990000Y-99480000D02*
X105550000Y-99040000D01*
X110670000Y-99480000D02*
X105990000Y-99480000D01*
X113000000Y-97150000D02*
X110670000Y-99480000D01*
X105400000Y-95990000D02*
X105550000Y-96140000D01*
X105550000Y-96140000D02*
X105550000Y-98000000D01*
D20*
X107600000Y-95990000D02*
X108700000Y-95990000D01*
D19*
X104850000Y-92000000D02*
X104850000Y-93540000D01*
X104850000Y-93540000D02*
X105400000Y-94090000D01*
D20*
X104850000Y-91880000D02*
X105100000Y-92130000D01*
D19*
X104850000Y-88300000D02*
X104850000Y-91880000D01*
G36*
X101640790Y-86420790D02*
X101530669Y-86585597D01*
X101492000Y-86780000D01*
X101492000Y-88721536D01*
X101150000Y-88721536D01*
X101008810Y-88748103D01*
X100879135Y-88831546D01*
X100792141Y-88958866D01*
X100761536Y-89110000D01*
X100761536Y-90810000D01*
X100788103Y-90951190D01*
X100871546Y-91080865D01*
X100998866Y-91167859D01*
X101150000Y-91198464D01*
X102850000Y-91198464D01*
X102991190Y-91171897D01*
X103120865Y-91088454D01*
X103207859Y-90961134D01*
X103238464Y-90810000D01*
X103238464Y-89110000D01*
X103211897Y-88968810D01*
X103128454Y-88839135D01*
X103001134Y-88752141D01*
X102850000Y-88721536D01*
X102508000Y-88721536D01*
X102508000Y-86990420D01*
X103350421Y-86148000D01*
X103673000Y-86148000D01*
X103673000Y-93000000D01*
X103683006Y-93049410D01*
X103711447Y-93091035D01*
X103753841Y-93118315D01*
X103800000Y-93127000D01*
X104342000Y-93127000D01*
X104342000Y-93540000D01*
X104380669Y-93734403D01*
X104481536Y-93885360D01*
X104481536Y-94133603D01*
X104481526Y-94133607D01*
X104288607Y-94326525D01*
X104184200Y-94578586D01*
X104184200Y-94706050D01*
X104355650Y-94877500D01*
X105209500Y-94877500D01*
X105209500Y-94829500D01*
X105590500Y-94829500D01*
X105590500Y-94877500D01*
X106444350Y-94877500D01*
X106615800Y-94706050D01*
X106615800Y-94578586D01*
X106511393Y-94326525D01*
X106318474Y-94133607D01*
X106318464Y-94133603D01*
X106318464Y-93765000D01*
X106291897Y-93623810D01*
X106208454Y-93494135D01*
X106081134Y-93407141D01*
X105930000Y-93376536D01*
X105404956Y-93376536D01*
X105358000Y-93329580D01*
X105358000Y-93127000D01*
X106402000Y-93127000D01*
X106402000Y-93610000D01*
X106440669Y-93804403D01*
X106550790Y-93969210D01*
X106681536Y-94099956D01*
X106681536Y-94415000D01*
X106708103Y-94556190D01*
X106712605Y-94563187D01*
X106712141Y-94563866D01*
X106681536Y-94715000D01*
X106681536Y-95365000D01*
X106708103Y-95506190D01*
X106712605Y-95513187D01*
X106712141Y-95513866D01*
X106681536Y-95665000D01*
X106681536Y-96315000D01*
X106708103Y-96456190D01*
X106791546Y-96585865D01*
X106918866Y-96672859D01*
X106934861Y-96676098D01*
X106711526Y-96768607D01*
X106518607Y-96961525D01*
X106414200Y-97213586D01*
X106414200Y-97638050D01*
X106585650Y-97809500D01*
X107275000Y-97809500D01*
X107275000Y-97789500D01*
X107625000Y-97789500D01*
X107625000Y-97809500D01*
X108314350Y-97809500D01*
X108485800Y-97638050D01*
X108485800Y-97401950D01*
X108689200Y-97401950D01*
X108689200Y-97676414D01*
X108793607Y-97928474D01*
X108986525Y-98121393D01*
X109238586Y-98225800D01*
X109638050Y-98225800D01*
X109809500Y-98054350D01*
X109809500Y-97230500D01*
X110190500Y-97230500D01*
X110190500Y-98054350D01*
X110361950Y-98225800D01*
X110761414Y-98225800D01*
X111013475Y-98121393D01*
X111206393Y-97928474D01*
X111310800Y-97676414D01*
X111310800Y-97401950D01*
X111139350Y-97230500D01*
X110190500Y-97230500D01*
X109809500Y-97230500D01*
X108860650Y-97230500D01*
X108689200Y-97401950D01*
X108485800Y-97401950D01*
X108485800Y-97213586D01*
X108381393Y-96961525D01*
X108188474Y-96768607D01*
X108031205Y-96703464D01*
X108130000Y-96703464D01*
X108271190Y-96676897D01*
X108347818Y-96627589D01*
X108555376Y-96713774D01*
X108725072Y-96713922D01*
X108860650Y-96849500D01*
X109809500Y-96849500D01*
X109809500Y-96829500D01*
X110190500Y-96829500D01*
X110190500Y-96849500D01*
X111139350Y-96849500D01*
X111310800Y-96678050D01*
X111310800Y-96403586D01*
X111206393Y-96151526D01*
X111013475Y-95958607D01*
X110809415Y-95874083D01*
X110895865Y-95818454D01*
X110982859Y-95691134D01*
X111013464Y-95540000D01*
X111013464Y-94540000D01*
X110986897Y-94398810D01*
X110948077Y-94338482D01*
X111013475Y-94311393D01*
X111206393Y-94118474D01*
X111310800Y-93866414D01*
X111310800Y-93591950D01*
X111139350Y-93420500D01*
X110190500Y-93420500D01*
X110190500Y-93440500D01*
X109809500Y-93440500D01*
X109809500Y-93420500D01*
X109789500Y-93420500D01*
X109789500Y-93127000D01*
X111200000Y-93127000D01*
X111249410Y-93116994D01*
X111291035Y-93088553D01*
X111318315Y-93046159D01*
X111327000Y-93000000D01*
X111327000Y-92738000D01*
X112000000Y-92738000D01*
X112194403Y-92699331D01*
X112359210Y-92589210D01*
X112479956Y-92468464D01*
X113850000Y-92468464D01*
X113991190Y-92441897D01*
X114120865Y-92358454D01*
X114207859Y-92231134D01*
X114238464Y-92080000D01*
X114238464Y-90380000D01*
X114211897Y-90238810D01*
X114128454Y-90109135D01*
X114001134Y-90022141D01*
X113850000Y-89991536D01*
X112150000Y-89991536D01*
X112008810Y-90018103D01*
X111879135Y-90101546D01*
X111792141Y-90228866D01*
X111761536Y-90380000D01*
X111761536Y-91722000D01*
X111327000Y-91722000D01*
X111327000Y-85456000D01*
X114155089Y-85456000D01*
X114328224Y-85490438D01*
X114436928Y-85563073D01*
X114509562Y-85671777D01*
X114544000Y-85844911D01*
X114544000Y-99155089D01*
X114509562Y-99328223D01*
X114436928Y-99436927D01*
X114328224Y-99509562D01*
X114155089Y-99544000D01*
X111324420Y-99544000D01*
X113359211Y-97509210D01*
X113469331Y-97344403D01*
X113508000Y-97150000D01*
X113508000Y-94898743D01*
X113894565Y-94640448D01*
X114161413Y-94241083D01*
X114255117Y-93770000D01*
X114161413Y-93298917D01*
X113894565Y-92899552D01*
X113495200Y-92632704D01*
X113024117Y-92539000D01*
X112975883Y-92539000D01*
X112504800Y-92632704D01*
X112105435Y-92899552D01*
X111838587Y-93298917D01*
X111744883Y-93770000D01*
X111838587Y-94241083D01*
X112105435Y-94640448D01*
X112492000Y-94898743D01*
X112492000Y-96939579D01*
X110459580Y-98972000D01*
X108408928Y-98972000D01*
X108485800Y-98786414D01*
X108485800Y-98361950D01*
X108314350Y-98190500D01*
X107625000Y-98190500D01*
X107625000Y-98210500D01*
X107275000Y-98210500D01*
X107275000Y-98190500D01*
X106585650Y-98190500D01*
X106414200Y-98361950D01*
X106414200Y-98786414D01*
X106491072Y-98972000D01*
X106200420Y-98972000D01*
X106162352Y-98933932D01*
X106170865Y-98928454D01*
X106257859Y-98801134D01*
X106288464Y-98650000D01*
X106288464Y-97350000D01*
X106261897Y-97208810D01*
X106178454Y-97079135D01*
X106058000Y-96996832D01*
X106058000Y-96679379D01*
X106071190Y-96676897D01*
X106200865Y-96593454D01*
X106287859Y-96466134D01*
X106318464Y-96315000D01*
X106318464Y-95946397D01*
X106318474Y-95946393D01*
X106511393Y-95753475D01*
X106615800Y-95501414D01*
X106615800Y-95373950D01*
X106444350Y-95202500D01*
X105590500Y-95202500D01*
X105590500Y-95250500D01*
X105209500Y-95250500D01*
X105209500Y-95202500D01*
X104355650Y-95202500D01*
X104184200Y-95373950D01*
X104184200Y-95501414D01*
X104288607Y-95753475D01*
X104481526Y-95946393D01*
X104481536Y-95946397D01*
X104481536Y-96315000D01*
X104508103Y-96456190D01*
X104591546Y-96585865D01*
X104718866Y-96672859D01*
X104870000Y-96703464D01*
X105042000Y-96703464D01*
X105042000Y-96998920D01*
X104929135Y-97071546D01*
X104842141Y-97198866D01*
X104811536Y-97350000D01*
X104811536Y-98650000D01*
X104838103Y-98791190D01*
X104921546Y-98920865D01*
X105042000Y-99003168D01*
X105042000Y-99040000D01*
X105080669Y-99234403D01*
X105190790Y-99399210D01*
X105335580Y-99544000D01*
X100844911Y-99544000D01*
X100671777Y-99509562D01*
X100563073Y-99436928D01*
X100490438Y-99328224D01*
X100456000Y-99155089D01*
X100456000Y-95466551D01*
X100524624Y-95466551D01*
X100655123Y-95781640D01*
X101041309Y-96239848D01*
X101573447Y-96515390D01*
X101809500Y-96392503D01*
X101809500Y-95230500D01*
X102190500Y-95230500D01*
X102190500Y-96392503D01*
X102426553Y-96515390D01*
X102958691Y-96239848D01*
X103344877Y-95781640D01*
X103475376Y-95466551D01*
X103350985Y-95230500D01*
X102190500Y-95230500D01*
X101809500Y-95230500D01*
X100649015Y-95230500D01*
X100524624Y-95466551D01*
X100456000Y-95466551D01*
X100456000Y-94613449D01*
X100524624Y-94613449D01*
X100649015Y-94849500D01*
X101809500Y-94849500D01*
X101809500Y-94829500D01*
X102190500Y-94829500D01*
X102190500Y-94849500D01*
X103350985Y-94849500D01*
X103475376Y-94613449D01*
X103344877Y-94298360D01*
X102958691Y-93840152D01*
X102526516Y-93616371D01*
X102894565Y-93370448D01*
X103161413Y-92971083D01*
X103255117Y-92500000D01*
X103161413Y-92028917D01*
X102894565Y-91629552D01*
X102495200Y-91362704D01*
X102024117Y-91269000D01*
X101975883Y-91269000D01*
X101504800Y-91362704D01*
X101105435Y-91629552D01*
X100838587Y-92028917D01*
X100744883Y-92500000D01*
X100838587Y-92971083D01*
X101105435Y-93370448D01*
X101473484Y-93616371D01*
X101041309Y-93840152D01*
X100655123Y-94298360D01*
X100524624Y-94613449D01*
X100456000Y-94613449D01*
X100456000Y-85844911D01*
X100490438Y-85671776D01*
X100563073Y-85563072D01*
X100671777Y-85490438D01*
X100844911Y-85456000D01*
X102605579Y-85456000D01*
X101640790Y-86420790D01*
X101640790Y-86420790D01*
G37*
X101640790Y-86420790D02*
X101530669Y-86585597D01*
X101492000Y-86780000D01*
X101492000Y-88721536D01*
X101150000Y-88721536D01*
X101008810Y-88748103D01*
X100879135Y-88831546D01*
X100792141Y-88958866D01*
X100761536Y-89110000D01*
X100761536Y-90810000D01*
X100788103Y-90951190D01*
X100871546Y-91080865D01*
X100998866Y-91167859D01*
X101150000Y-91198464D01*
X102850000Y-91198464D01*
X102991190Y-91171897D01*
X103120865Y-91088454D01*
X103207859Y-90961134D01*
X103238464Y-90810000D01*
X103238464Y-89110000D01*
X103211897Y-88968810D01*
X103128454Y-88839135D01*
X103001134Y-88752141D01*
X102850000Y-88721536D01*
X102508000Y-88721536D01*
X102508000Y-86990420D01*
X103350421Y-86148000D01*
X103673000Y-86148000D01*
X103673000Y-93000000D01*
X103683006Y-93049410D01*
X103711447Y-93091035D01*
X103753841Y-93118315D01*
X103800000Y-93127000D01*
X104342000Y-93127000D01*
X104342000Y-93540000D01*
X104380669Y-93734403D01*
X104481536Y-93885360D01*
X104481536Y-94133603D01*
X104481526Y-94133607D01*
X104288607Y-94326525D01*
X104184200Y-94578586D01*
X104184200Y-94706050D01*
X104355650Y-94877500D01*
X105209500Y-94877500D01*
X105209500Y-94829500D01*
X105590500Y-94829500D01*
X105590500Y-94877500D01*
X106444350Y-94877500D01*
X106615800Y-94706050D01*
X106615800Y-94578586D01*
X106511393Y-94326525D01*
X106318474Y-94133607D01*
X106318464Y-94133603D01*
X106318464Y-93765000D01*
X106291897Y-93623810D01*
X106208454Y-93494135D01*
X106081134Y-93407141D01*
X105930000Y-93376536D01*
X105404956Y-93376536D01*
X105358000Y-93329580D01*
X105358000Y-93127000D01*
X106402000Y-93127000D01*
X106402000Y-93610000D01*
X106440669Y-93804403D01*
X106550790Y-93969210D01*
X106681536Y-94099956D01*
X106681536Y-94415000D01*
X106708103Y-94556190D01*
X106712605Y-94563187D01*
X106712141Y-94563866D01*
X106681536Y-94715000D01*
X106681536Y-95365000D01*
X106708103Y-95506190D01*
X106712605Y-95513187D01*
X106712141Y-95513866D01*
X106681536Y-95665000D01*
X106681536Y-96315000D01*
X106708103Y-96456190D01*
X106791546Y-96585865D01*
X106918866Y-96672859D01*
X106934861Y-96676098D01*
X106711526Y-96768607D01*
X106518607Y-96961525D01*
X106414200Y-97213586D01*
X106414200Y-97638050D01*
X106585650Y-97809500D01*
X107275000Y-97809500D01*
X107275000Y-97789500D01*
X107625000Y-97789500D01*
X107625000Y-97809500D01*
X108314350Y-97809500D01*
X108485800Y-97638050D01*
X108485800Y-97401950D01*
X108689200Y-97401950D01*
X108689200Y-97676414D01*
X108793607Y-97928474D01*
X108986525Y-98121393D01*
X109238586Y-98225800D01*
X109638050Y-98225800D01*
X109809500Y-98054350D01*
X109809500Y-97230500D01*
X110190500Y-97230500D01*
X110190500Y-98054350D01*
X110361950Y-98225800D01*
X110761414Y-98225800D01*
X111013475Y-98121393D01*
X111206393Y-97928474D01*
X111310800Y-97676414D01*
X111310800Y-97401950D01*
X111139350Y-97230500D01*
X110190500Y-97230500D01*
X109809500Y-97230500D01*
X108860650Y-97230500D01*
X108689200Y-97401950D01*
X108485800Y-97401950D01*
X108485800Y-97213586D01*
X108381393Y-96961525D01*
X108188474Y-96768607D01*
X108031205Y-96703464D01*
X108130000Y-96703464D01*
X108271190Y-96676897D01*
X108347818Y-96627589D01*
X108555376Y-96713774D01*
X108725072Y-96713922D01*
X108860650Y-96849500D01*
X109809500Y-96849500D01*
X109809500Y-96829500D01*
X110190500Y-96829500D01*
X110190500Y-96849500D01*
X111139350Y-96849500D01*
X111310800Y-96678050D01*
X111310800Y-96403586D01*
X111206393Y-96151526D01*
X111013475Y-95958607D01*
X110809415Y-95874083D01*
X110895865Y-95818454D01*
X110982859Y-95691134D01*
X111013464Y-95540000D01*
X111013464Y-94540000D01*
X110986897Y-94398810D01*
X110948077Y-94338482D01*
X111013475Y-94311393D01*
X111206393Y-94118474D01*
X111310800Y-93866414D01*
X111310800Y-93591950D01*
X111139350Y-93420500D01*
X110190500Y-93420500D01*
X110190500Y-93440500D01*
X109809500Y-93440500D01*
X109809500Y-93420500D01*
X109789500Y-93420500D01*
X109789500Y-93127000D01*
X111200000Y-93127000D01*
X111249410Y-93116994D01*
X111291035Y-93088553D01*
X111318315Y-93046159D01*
X111327000Y-93000000D01*
X111327000Y-92738000D01*
X112000000Y-92738000D01*
X112194403Y-92699331D01*
X112359210Y-92589210D01*
X112479956Y-92468464D01*
X113850000Y-92468464D01*
X113991190Y-92441897D01*
X114120865Y-92358454D01*
X114207859Y-92231134D01*
X114238464Y-92080000D01*
X114238464Y-90380000D01*
X114211897Y-90238810D01*
X114128454Y-90109135D01*
X114001134Y-90022141D01*
X113850000Y-89991536D01*
X112150000Y-89991536D01*
X112008810Y-90018103D01*
X111879135Y-90101546D01*
X111792141Y-90228866D01*
X111761536Y-90380000D01*
X111761536Y-91722000D01*
X111327000Y-91722000D01*
X111327000Y-85456000D01*
X114155089Y-85456000D01*
X114328224Y-85490438D01*
X114436928Y-85563073D01*
X114509562Y-85671777D01*
X114544000Y-85844911D01*
X114544000Y-99155089D01*
X114509562Y-99328223D01*
X114436928Y-99436927D01*
X114328224Y-99509562D01*
X114155089Y-99544000D01*
X111324420Y-99544000D01*
X113359211Y-97509210D01*
X113469331Y-97344403D01*
X113508000Y-97150000D01*
X113508000Y-94898743D01*
X113894565Y-94640448D01*
X114161413Y-94241083D01*
X114255117Y-93770000D01*
X114161413Y-93298917D01*
X113894565Y-92899552D01*
X113495200Y-92632704D01*
X113024117Y-92539000D01*
X112975883Y-92539000D01*
X112504800Y-92632704D01*
X112105435Y-92899552D01*
X111838587Y-93298917D01*
X111744883Y-93770000D01*
X111838587Y-94241083D01*
X112105435Y-94640448D01*
X112492000Y-94898743D01*
X112492000Y-96939579D01*
X110459580Y-98972000D01*
X108408928Y-98972000D01*
X108485800Y-98786414D01*
X108485800Y-98361950D01*
X108314350Y-98190500D01*
X107625000Y-98190500D01*
X107625000Y-98210500D01*
X107275000Y-98210500D01*
X107275000Y-98190500D01*
X106585650Y-98190500D01*
X106414200Y-98361950D01*
X106414200Y-98786414D01*
X106491072Y-98972000D01*
X106200420Y-98972000D01*
X106162352Y-98933932D01*
X106170865Y-98928454D01*
X106257859Y-98801134D01*
X106288464Y-98650000D01*
X106288464Y-97350000D01*
X106261897Y-97208810D01*
X106178454Y-97079135D01*
X106058000Y-96996832D01*
X106058000Y-96679379D01*
X106071190Y-96676897D01*
X106200865Y-96593454D01*
X106287859Y-96466134D01*
X106318464Y-96315000D01*
X106318464Y-95946397D01*
X106318474Y-95946393D01*
X106511393Y-95753475D01*
X106615800Y-95501414D01*
X106615800Y-95373950D01*
X106444350Y-95202500D01*
X105590500Y-95202500D01*
X105590500Y-95250500D01*
X105209500Y-95250500D01*
X105209500Y-95202500D01*
X104355650Y-95202500D01*
X104184200Y-95373950D01*
X104184200Y-95501414D01*
X104288607Y-95753475D01*
X104481526Y-95946393D01*
X104481536Y-95946397D01*
X104481536Y-96315000D01*
X104508103Y-96456190D01*
X104591546Y-96585865D01*
X104718866Y-96672859D01*
X104870000Y-96703464D01*
X105042000Y-96703464D01*
X105042000Y-96998920D01*
X104929135Y-97071546D01*
X104842141Y-97198866D01*
X104811536Y-97350000D01*
X104811536Y-98650000D01*
X104838103Y-98791190D01*
X104921546Y-98920865D01*
X105042000Y-99003168D01*
X105042000Y-99040000D01*
X105080669Y-99234403D01*
X105190790Y-99399210D01*
X105335580Y-99544000D01*
X100844911Y-99544000D01*
X100671777Y-99509562D01*
X100563073Y-99436928D01*
X100490438Y-99328224D01*
X100456000Y-99155089D01*
X100456000Y-95466551D01*
X100524624Y-95466551D01*
X100655123Y-95781640D01*
X101041309Y-96239848D01*
X101573447Y-96515390D01*
X101809500Y-96392503D01*
X101809500Y-95230500D01*
X102190500Y-95230500D01*
X102190500Y-96392503D01*
X102426553Y-96515390D01*
X102958691Y-96239848D01*
X103344877Y-95781640D01*
X103475376Y-95466551D01*
X103350985Y-95230500D01*
X102190500Y-95230500D01*
X101809500Y-95230500D01*
X100649015Y-95230500D01*
X100524624Y-95466551D01*
X100456000Y-95466551D01*
X100456000Y-94613449D01*
X100524624Y-94613449D01*
X100649015Y-94849500D01*
X101809500Y-94849500D01*
X101809500Y-94829500D01*
X102190500Y-94829500D01*
X102190500Y-94849500D01*
X103350985Y-94849500D01*
X103475376Y-94613449D01*
X103344877Y-94298360D01*
X102958691Y-93840152D01*
X102526516Y-93616371D01*
X102894565Y-93370448D01*
X103161413Y-92971083D01*
X103255117Y-92500000D01*
X103161413Y-92028917D01*
X102894565Y-91629552D01*
X102495200Y-91362704D01*
X102024117Y-91269000D01*
X101975883Y-91269000D01*
X101504800Y-91362704D01*
X101105435Y-91629552D01*
X100838587Y-92028917D01*
X100744883Y-92500000D01*
X100838587Y-92971083D01*
X101105435Y-93370448D01*
X101473484Y-93616371D01*
X101041309Y-93840152D01*
X100655123Y-94298360D01*
X100524624Y-94613449D01*
X100456000Y-94613449D01*
X100456000Y-85844911D01*
X100490438Y-85671776D01*
X100563073Y-85563072D01*
X100671777Y-85490438D01*
X100844911Y-85456000D01*
X102605579Y-85456000D01*
X101640790Y-86420790D01*
M02*
