G04 #@! TF.FileFunction,Legend,Bot*
%FSLAX46Y46*%
G04 Gerber Fmt 4.6, Leading zero omitted, Abs format (unit mm)*
G04 Created by KiCad (PCBNEW 4.0.6) date 07/26/17 22:00:31*
%MOMM*%
%LPD*%
G01*
G04 APERTURE LIST*
%ADD10C,0.100000*%
%ADD11C,0.180000*%
%ADD12C,0.150000*%
%ADD13C,0.120000*%
G04 APERTURE END LIST*
D10*
D11*
X103142857Y-97828571D02*
X102952381Y-98361905D01*
X102761905Y-97828571D01*
X102038095Y-98361905D02*
X102495238Y-98361905D01*
X102266667Y-98361905D02*
X102266667Y-97561905D01*
X102342857Y-97676190D01*
X102419048Y-97752381D01*
X102495238Y-97790476D01*
X101695238Y-98285714D02*
X101657143Y-98323810D01*
X101695238Y-98361905D01*
X101733333Y-98323810D01*
X101695238Y-98285714D01*
X101695238Y-98361905D01*
X101161905Y-97561905D02*
X101085714Y-97561905D01*
X101009524Y-97600000D01*
X100971429Y-97638095D01*
X100933333Y-97714286D01*
X100895238Y-97866667D01*
X100895238Y-98057143D01*
X100933333Y-98209524D01*
X100971429Y-98285714D01*
X101009524Y-98323810D01*
X101085714Y-98361905D01*
X101161905Y-98361905D01*
X101238095Y-98323810D01*
X101276191Y-98285714D01*
X101314286Y-98209524D01*
X101352381Y-98057143D01*
X101352381Y-97866667D01*
X101314286Y-97714286D01*
X101276191Y-97638095D01*
X101238095Y-97600000D01*
X101161905Y-97561905D01*
X113423809Y-87611905D02*
X113804762Y-87611905D01*
X113804762Y-86811905D01*
X113157143Y-87192857D02*
X112890476Y-87192857D01*
X112776190Y-87611905D02*
X113157143Y-87611905D01*
X113157143Y-86811905D01*
X112776190Y-86811905D01*
X112433333Y-87611905D02*
X112433333Y-86811905D01*
X112242857Y-86811905D01*
X112128571Y-86850000D01*
X112052380Y-86926190D01*
X112014285Y-87002381D01*
X111976190Y-87154762D01*
X111976190Y-87269048D01*
X112014285Y-87421429D01*
X112052380Y-87497619D01*
X112128571Y-87573810D01*
X112242857Y-87611905D01*
X112433333Y-87611905D01*
X111023809Y-87611905D02*
X111023809Y-86811905D01*
X110833333Y-86811905D01*
X110719047Y-86850000D01*
X110642856Y-86926190D01*
X110604761Y-87002381D01*
X110566666Y-87154762D01*
X110566666Y-87269048D01*
X110604761Y-87421429D01*
X110642856Y-87497619D01*
X110719047Y-87573810D01*
X110833333Y-87611905D01*
X111023809Y-87611905D01*
X110223809Y-87611905D02*
X110223809Y-87078571D01*
X110223809Y-87230952D02*
X110185714Y-87154762D01*
X110147618Y-87116667D01*
X110071428Y-87078571D01*
X109995237Y-87078571D01*
X109728571Y-87611905D02*
X109728571Y-87078571D01*
X109728571Y-86811905D02*
X109766666Y-86850000D01*
X109728571Y-86888095D01*
X109690476Y-86850000D01*
X109728571Y-86811905D01*
X109728571Y-86888095D01*
X109423809Y-87078571D02*
X109233333Y-87611905D01*
X109042857Y-87078571D01*
X108433333Y-87573810D02*
X108509523Y-87611905D01*
X108661904Y-87611905D01*
X108738095Y-87573810D01*
X108776190Y-87497619D01*
X108776190Y-87192857D01*
X108738095Y-87116667D01*
X108661904Y-87078571D01*
X108509523Y-87078571D01*
X108433333Y-87116667D01*
X108395238Y-87192857D01*
X108395238Y-87269048D01*
X108776190Y-87345238D01*
X108052381Y-87611905D02*
X108052381Y-87078571D01*
X108052381Y-87230952D02*
X108014286Y-87154762D01*
X107976190Y-87116667D01*
X107900000Y-87078571D01*
X107823809Y-87078571D01*
X106947619Y-87307143D02*
X106338095Y-87307143D01*
X105385714Y-87383333D02*
X105004762Y-87383333D01*
X105461905Y-87611905D02*
X105195238Y-86811905D01*
X104928571Y-87611905D01*
X104661905Y-87611905D02*
X104661905Y-86811905D01*
X104357143Y-86811905D01*
X104280952Y-86850000D01*
X104242857Y-86888095D01*
X104204762Y-86964286D01*
X104204762Y-87078571D01*
X104242857Y-87154762D01*
X104280952Y-87192857D01*
X104357143Y-87230952D01*
X104661905Y-87230952D01*
X103480952Y-86811905D02*
X103861905Y-86811905D01*
X103900000Y-87192857D01*
X103861905Y-87154762D01*
X103785714Y-87116667D01*
X103595238Y-87116667D01*
X103519048Y-87154762D01*
X103480952Y-87192857D01*
X103442857Y-87269048D01*
X103442857Y-87459524D01*
X103480952Y-87535714D01*
X103519048Y-87573810D01*
X103595238Y-87611905D01*
X103785714Y-87611905D01*
X103861905Y-87573810D01*
X103900000Y-87535714D01*
X103176190Y-86811905D02*
X102642857Y-86811905D01*
X102985714Y-87611905D01*
X102376190Y-86888095D02*
X102338095Y-86850000D01*
X102261904Y-86811905D01*
X102071428Y-86811905D01*
X101995238Y-86850000D01*
X101957142Y-86888095D01*
X101919047Y-86964286D01*
X101919047Y-87040476D01*
X101957142Y-87154762D01*
X102414285Y-87611905D01*
X101919047Y-87611905D01*
X101233333Y-87078571D02*
X101233333Y-87611905D01*
X101423809Y-86773810D02*
X101614285Y-87345238D01*
X101119047Y-87345238D01*
D12*
X110171427Y-93727143D02*
X109971427Y-93727143D01*
X109885713Y-94041429D02*
X110171427Y-94041429D01*
X110171427Y-93441429D01*
X109885713Y-93441429D01*
X109628570Y-94041429D02*
X109628570Y-93441429D01*
X109285713Y-94041429D01*
X109285713Y-93441429D01*
X109142856Y-94098571D02*
X108685713Y-94098571D01*
X108199999Y-93984286D02*
X108228570Y-94012857D01*
X108314284Y-94041429D01*
X108371427Y-94041429D01*
X108457142Y-94012857D01*
X108514284Y-93955714D01*
X108542856Y-93898571D01*
X108571427Y-93784286D01*
X108571427Y-93698571D01*
X108542856Y-93584286D01*
X108514284Y-93527143D01*
X108457142Y-93470000D01*
X108371427Y-93441429D01*
X108314284Y-93441429D01*
X108228570Y-93470000D01*
X108199999Y-93498571D01*
X107828570Y-93441429D02*
X107714284Y-93441429D01*
X107657142Y-93470000D01*
X107599999Y-93527143D01*
X107571427Y-93641429D01*
X107571427Y-93841429D01*
X107599999Y-93955714D01*
X107657142Y-94012857D01*
X107714284Y-94041429D01*
X107828570Y-94041429D01*
X107885713Y-94012857D01*
X107942856Y-93955714D01*
X107971427Y-93841429D01*
X107971427Y-93641429D01*
X107942856Y-93527143D01*
X107885713Y-93470000D01*
X107828570Y-93441429D01*
X107314285Y-94041429D02*
X107314285Y-93441429D01*
X106971428Y-94041429D01*
X106971428Y-93441429D01*
X106685714Y-94041429D02*
X106685714Y-93441429D01*
X106342857Y-94041429D01*
X106342857Y-93441429D01*
X107228571Y-92457143D02*
X107028571Y-92457143D01*
X106942857Y-92771429D02*
X107228571Y-92771429D01*
X107228571Y-92171429D01*
X106942857Y-92171429D01*
X106685714Y-92771429D02*
X106685714Y-92171429D01*
X106342857Y-92771429D01*
X106342857Y-92171429D01*
X108057144Y-90901429D02*
X107685715Y-90901429D01*
X107885715Y-91130000D01*
X107800001Y-91130000D01*
X107742858Y-91158571D01*
X107714287Y-91187143D01*
X107685715Y-91244286D01*
X107685715Y-91387143D01*
X107714287Y-91444286D01*
X107742858Y-91472857D01*
X107800001Y-91501429D01*
X107971429Y-91501429D01*
X108028572Y-91472857D01*
X108057144Y-91444286D01*
X107428572Y-91444286D02*
X107400000Y-91472857D01*
X107428572Y-91501429D01*
X107457143Y-91472857D01*
X107428572Y-91444286D01*
X107428572Y-91501429D01*
X107200001Y-90901429D02*
X106828572Y-90901429D01*
X107028572Y-91130000D01*
X106942858Y-91130000D01*
X106885715Y-91158571D01*
X106857144Y-91187143D01*
X106828572Y-91244286D01*
X106828572Y-91387143D01*
X106857144Y-91444286D01*
X106885715Y-91472857D01*
X106942858Y-91501429D01*
X107114286Y-91501429D01*
X107171429Y-91472857D01*
X107200001Y-91444286D01*
X106657143Y-90901429D02*
X106457143Y-91501429D01*
X106257143Y-90901429D01*
D13*
X106070000Y-90590000D02*
X106070000Y-94410000D01*
X106070000Y-94410000D02*
X104290000Y-94410000D01*
X104290000Y-94410000D02*
X104290000Y-90590000D01*
X106070000Y-90590000D02*
X104290000Y-90590000D01*
M02*
