G04 #@! TF.FileFunction,Legend,Top*
%FSLAX46Y46*%
G04 Gerber Fmt 4.6, Leading zero omitted, Abs format (unit mm)*
G04 Created by KiCad (PCBNEW 4.0.6) date 07/26/17 21:54:56*
%MOMM*%
%LPD*%
G01*
G04 APERTURE LIST*
%ADD10C,0.100000*%
%ADD11C,0.150000*%
%ADD12C,0.120000*%
G04 APERTURE END LIST*
D10*
D11*
X101542858Y-96740000D02*
X101485715Y-96711429D01*
X101400001Y-96711429D01*
X101314286Y-96740000D01*
X101257144Y-96797143D01*
X101228572Y-96854286D01*
X101200001Y-96968571D01*
X101200001Y-97054286D01*
X101228572Y-97168571D01*
X101257144Y-97225714D01*
X101314286Y-97282857D01*
X101400001Y-97311429D01*
X101457144Y-97311429D01*
X101542858Y-97282857D01*
X101571429Y-97254286D01*
X101571429Y-97054286D01*
X101457144Y-97054286D01*
X101828572Y-97311429D02*
X101828572Y-96711429D01*
X102171429Y-97311429D01*
X102171429Y-96711429D01*
X102457143Y-97311429D02*
X102457143Y-96711429D01*
X102600000Y-96711429D01*
X102685715Y-96740000D01*
X102742857Y-96797143D01*
X102771429Y-96854286D01*
X102800000Y-96968571D01*
X102800000Y-97054286D01*
X102771429Y-97168571D01*
X102742857Y-97225714D01*
X102685715Y-97282857D01*
X102600000Y-97311429D01*
X102457143Y-97311429D01*
X101114285Y-87631429D02*
X101485714Y-87631429D01*
X101285714Y-87860000D01*
X101371428Y-87860000D01*
X101428571Y-87888571D01*
X101457142Y-87917143D01*
X101485714Y-87974286D01*
X101485714Y-88117143D01*
X101457142Y-88174286D01*
X101428571Y-88202857D01*
X101371428Y-88231429D01*
X101200000Y-88231429D01*
X101142857Y-88202857D01*
X101114285Y-88174286D01*
X101742857Y-88174286D02*
X101771429Y-88202857D01*
X101742857Y-88231429D01*
X101714286Y-88202857D01*
X101742857Y-88174286D01*
X101742857Y-88231429D01*
X101971428Y-87631429D02*
X102342857Y-87631429D01*
X102142857Y-87860000D01*
X102228571Y-87860000D01*
X102285714Y-87888571D01*
X102314285Y-87917143D01*
X102342857Y-87974286D01*
X102342857Y-88117143D01*
X102314285Y-88174286D01*
X102285714Y-88202857D01*
X102228571Y-88231429D01*
X102057143Y-88231429D01*
X102000000Y-88202857D01*
X101971428Y-88174286D01*
X102514286Y-87631429D02*
X102714286Y-88231429D01*
X102914286Y-87631429D01*
X112085714Y-96041429D02*
X111800000Y-96041429D01*
X111800000Y-95441429D01*
X112285714Y-95727143D02*
X112485714Y-95727143D01*
X112571428Y-96041429D02*
X112285714Y-96041429D01*
X112285714Y-95441429D01*
X112571428Y-95441429D01*
X112828571Y-96041429D02*
X112828571Y-95441429D01*
X112971428Y-95441429D01*
X113057143Y-95470000D01*
X113114285Y-95527143D01*
X113142857Y-95584286D01*
X113171428Y-95698571D01*
X113171428Y-95784286D01*
X113142857Y-95898571D01*
X113114285Y-95955714D01*
X113057143Y-96012857D01*
X112971428Y-96041429D01*
X112828571Y-96041429D01*
X113285714Y-96098571D02*
X113742857Y-96098571D01*
X113885714Y-96041429D02*
X113885714Y-95441429D01*
X114228571Y-96041429D02*
X113971428Y-95698571D01*
X114228571Y-95441429D02*
X113885714Y-95784286D01*
X112128571Y-89501429D02*
X111842857Y-89501429D01*
X111842857Y-88901429D01*
X112328571Y-89187143D02*
X112528571Y-89187143D01*
X112614285Y-89501429D02*
X112328571Y-89501429D01*
X112328571Y-88901429D01*
X112614285Y-88901429D01*
X112871428Y-89501429D02*
X112871428Y-88901429D01*
X113014285Y-88901429D01*
X113100000Y-88930000D01*
X113157142Y-88987143D01*
X113185714Y-89044286D01*
X113214285Y-89158571D01*
X113214285Y-89244286D01*
X113185714Y-89358571D01*
X113157142Y-89415714D01*
X113100000Y-89472857D01*
X113014285Y-89501429D01*
X112871428Y-89501429D01*
X113328571Y-89558571D02*
X113785714Y-89558571D01*
X113900000Y-89330000D02*
X114185714Y-89330000D01*
X113842857Y-89501429D02*
X114042857Y-88901429D01*
X114242857Y-89501429D01*
D12*
X110850000Y-96540000D02*
X110850000Y-95540000D01*
X109150000Y-95540000D02*
X109150000Y-96540000D01*
X110850000Y-92730000D02*
X110850000Y-91730000D01*
X109150000Y-91730000D02*
X109150000Y-92730000D01*
X111670000Y-95100000D02*
X114330000Y-95100000D01*
X111670000Y-92500000D02*
X111670000Y-95100000D01*
X114330000Y-92500000D02*
X114330000Y-95100000D01*
X111670000Y-92500000D02*
X114330000Y-92500000D01*
X111670000Y-91230000D02*
X111670000Y-89900000D01*
X111670000Y-89900000D02*
X113000000Y-89900000D01*
D11*
X110500000Y-90350000D02*
X104500000Y-90350000D01*
X110500000Y-86150000D02*
X104500000Y-86150000D01*
D12*
X107100000Y-98880000D02*
X105900000Y-98880000D01*
X105900000Y-97120000D02*
X107100000Y-97120000D01*
X100670000Y-96370000D02*
X103330000Y-96370000D01*
X100670000Y-91230000D02*
X100670000Y-96370000D01*
X103330000Y-91230000D02*
X103330000Y-96370000D01*
X100670000Y-91230000D02*
X103330000Y-91230000D01*
X100670000Y-89960000D02*
X100670000Y-88630000D01*
X100670000Y-88630000D02*
X102000000Y-88630000D01*
X108750000Y-93000000D02*
X108750000Y-91000000D01*
X108750000Y-91000000D02*
X104850000Y-91000000D01*
X108750000Y-93000000D02*
X104850000Y-93000000D01*
X105620000Y-96600000D02*
X107380000Y-96600000D01*
X107380000Y-93530000D02*
X104950000Y-93530000D01*
D11*
X109900000Y-96254286D02*
X109871429Y-96282857D01*
X109785715Y-96311429D01*
X109728572Y-96311429D01*
X109642857Y-96282857D01*
X109585715Y-96225714D01*
X109557143Y-96168571D01*
X109528572Y-96054286D01*
X109528572Y-95968571D01*
X109557143Y-95854286D01*
X109585715Y-95797143D01*
X109642857Y-95740000D01*
X109728572Y-95711429D01*
X109785715Y-95711429D01*
X109871429Y-95740000D01*
X109900000Y-95768571D01*
X110128572Y-95768571D02*
X110157143Y-95740000D01*
X110214286Y-95711429D01*
X110357143Y-95711429D01*
X110414286Y-95740000D01*
X110442857Y-95768571D01*
X110471429Y-95825714D01*
X110471429Y-95882857D01*
X110442857Y-95968571D01*
X110100000Y-96311429D01*
X110471429Y-96311429D01*
X109900000Y-92444286D02*
X109871429Y-92472857D01*
X109785715Y-92501429D01*
X109728572Y-92501429D01*
X109642857Y-92472857D01*
X109585715Y-92415714D01*
X109557143Y-92358571D01*
X109528572Y-92244286D01*
X109528572Y-92158571D01*
X109557143Y-92044286D01*
X109585715Y-91987143D01*
X109642857Y-91930000D01*
X109728572Y-91901429D01*
X109785715Y-91901429D01*
X109871429Y-91930000D01*
X109900000Y-91958571D01*
X110471429Y-92501429D02*
X110128572Y-92501429D01*
X110300000Y-92501429D02*
X110300000Y-91901429D01*
X110242857Y-91987143D01*
X110185715Y-92044286D01*
X110128572Y-92072857D01*
X107400000Y-88521429D02*
X107114286Y-88521429D01*
X107114286Y-87921429D01*
X107914286Y-88521429D02*
X107571429Y-88521429D01*
X107742857Y-88521429D02*
X107742857Y-87921429D01*
X107685714Y-88007143D01*
X107628572Y-88064286D01*
X107571429Y-88092857D01*
X106400000Y-98271429D02*
X106200000Y-97985714D01*
X106057143Y-98271429D02*
X106057143Y-97671429D01*
X106285715Y-97671429D01*
X106342857Y-97700000D01*
X106371429Y-97728571D01*
X106400000Y-97785714D01*
X106400000Y-97871429D01*
X106371429Y-97928571D01*
X106342857Y-97957143D01*
X106285715Y-97985714D01*
X106057143Y-97985714D01*
X106971429Y-98271429D02*
X106628572Y-98271429D01*
X106800000Y-98271429D02*
X106800000Y-97671429D01*
X106742857Y-97757143D01*
X106685715Y-97814286D01*
X106628572Y-97842857D01*
X106057143Y-92271429D02*
X106057143Y-91671429D01*
X106200000Y-91671429D01*
X106285715Y-91700000D01*
X106342857Y-91757143D01*
X106371429Y-91814286D01*
X106400000Y-91928571D01*
X106400000Y-92014286D01*
X106371429Y-92128571D01*
X106342857Y-92185714D01*
X106285715Y-92242857D01*
X106200000Y-92271429D01*
X106057143Y-92271429D01*
X106971429Y-92271429D02*
X106628572Y-92271429D01*
X106800000Y-92271429D02*
X106800000Y-91671429D01*
X106742857Y-91757143D01*
X106685715Y-91814286D01*
X106628572Y-91842857D01*
X106042857Y-94711429D02*
X106042857Y-95197143D01*
X106071429Y-95254286D01*
X106100000Y-95282857D01*
X106157143Y-95311429D01*
X106271429Y-95311429D01*
X106328571Y-95282857D01*
X106357143Y-95254286D01*
X106385714Y-95197143D01*
X106385714Y-94711429D01*
X106985714Y-95311429D02*
X106642857Y-95311429D01*
X106814285Y-95311429D02*
X106814285Y-94711429D01*
X106757142Y-94797143D01*
X106700000Y-94854286D01*
X106642857Y-94882857D01*
M02*
