G04 #@! TF.FileFunction,Copper,L2,Bot,Signal*
%FSLAX46Y46*%
G04 Gerber Fmt 4.6, Leading zero omitted, Abs format (unit mm)*
G04 Created by KiCad (PCBNEW 4.0.6) date 07/26/17 22:00:31*
%MOMM*%
%LPD*%
G01*
G04 APERTURE LIST*
%ADD10C,0.100000*%
%ADD11R,1.700000X1.700000*%
%ADD12O,1.700000X1.700000*%
%ADD13R,1.270000X0.970000*%
%ADD14C,0.685800*%
%ADD15C,0.254000*%
%ADD16C,0.152400*%
G04 APERTURE END LIST*
D10*
D11*
X113000000Y-91230000D03*
D12*
X113000000Y-93770000D03*
D11*
X102000000Y-89960000D03*
D12*
X102000000Y-92500000D03*
X102000000Y-95040000D03*
D13*
X105180000Y-91230000D03*
X105180000Y-92500000D03*
X105180000Y-93770000D03*
D14*
X108700000Y-95990000D03*
D15*
X105180000Y-91230000D02*
X103270000Y-91230000D01*
X103270000Y-91230000D02*
X102000000Y-89960000D01*
D16*
X108130000Y-92500000D02*
X105180000Y-92500000D01*
X108700000Y-93070000D02*
X108130000Y-92500000D01*
X108700000Y-95990000D02*
X108700000Y-93070000D01*
X102000000Y-92500000D02*
X103270000Y-93770000D01*
X103270000Y-93770000D02*
X105180000Y-93770000D01*
D15*
G36*
X114328224Y-85490438D02*
X114436928Y-85563073D01*
X114509562Y-85671777D01*
X114544000Y-85844911D01*
X114544000Y-99155089D01*
X114509562Y-99328223D01*
X114436928Y-99436927D01*
X114328224Y-99509562D01*
X114155089Y-99544000D01*
X100844911Y-99544000D01*
X100671777Y-99509562D01*
X100563073Y-99436928D01*
X100490438Y-99328224D01*
X100456000Y-99155089D01*
X100456000Y-95466551D01*
X100524624Y-95466551D01*
X100655123Y-95781640D01*
X101041309Y-96239848D01*
X101573447Y-96515390D01*
X101809500Y-96392503D01*
X101809500Y-95230500D01*
X102190500Y-95230500D01*
X102190500Y-96392503D01*
X102426553Y-96515390D01*
X102958691Y-96239848D01*
X103344877Y-95781640D01*
X103475376Y-95466551D01*
X103350985Y-95230500D01*
X102190500Y-95230500D01*
X101809500Y-95230500D01*
X100649015Y-95230500D01*
X100524624Y-95466551D01*
X100456000Y-95466551D01*
X100456000Y-94613449D01*
X100524624Y-94613449D01*
X100649015Y-94849500D01*
X101809500Y-94849500D01*
X101809500Y-94829500D01*
X102190500Y-94829500D01*
X102190500Y-94849500D01*
X103350985Y-94849500D01*
X103475376Y-94613449D01*
X103344877Y-94298360D01*
X103284902Y-94227200D01*
X104156536Y-94227200D01*
X104156536Y-94255000D01*
X104183103Y-94396190D01*
X104266546Y-94525865D01*
X104393866Y-94612859D01*
X104545000Y-94643464D01*
X105815000Y-94643464D01*
X105956190Y-94616897D01*
X106085865Y-94533454D01*
X106172859Y-94406134D01*
X106203464Y-94255000D01*
X106203464Y-93285000D01*
X106176897Y-93143810D01*
X106172395Y-93136813D01*
X106172859Y-93136134D01*
X106203464Y-92985000D01*
X106203464Y-92957200D01*
X107940622Y-92957200D01*
X108242800Y-93259378D01*
X108242800Y-95423546D01*
X108086665Y-95579408D01*
X107976226Y-95845376D01*
X107975975Y-96133361D01*
X108085950Y-96399521D01*
X108289408Y-96603335D01*
X108555376Y-96713774D01*
X108843361Y-96714025D01*
X109109521Y-96604050D01*
X109313335Y-96400592D01*
X109423774Y-96134624D01*
X109424025Y-95846639D01*
X109314050Y-95580479D01*
X109157200Y-95423355D01*
X109157200Y-93770000D01*
X111744883Y-93770000D01*
X111838587Y-94241083D01*
X112105435Y-94640448D01*
X112504800Y-94907296D01*
X112975883Y-95001000D01*
X113024117Y-95001000D01*
X113495200Y-94907296D01*
X113894565Y-94640448D01*
X114161413Y-94241083D01*
X114255117Y-93770000D01*
X114161413Y-93298917D01*
X113894565Y-92899552D01*
X113495200Y-92632704D01*
X113024117Y-92539000D01*
X112975883Y-92539000D01*
X112504800Y-92632704D01*
X112105435Y-92899552D01*
X111838587Y-93298917D01*
X111744883Y-93770000D01*
X109157200Y-93770000D01*
X109157200Y-93070000D01*
X109122398Y-92895037D01*
X109023289Y-92746711D01*
X108453289Y-92176711D01*
X108304963Y-92077602D01*
X108130000Y-92042800D01*
X106203464Y-92042800D01*
X106203464Y-92015000D01*
X106176897Y-91873810D01*
X106172395Y-91866813D01*
X106172859Y-91866134D01*
X106203464Y-91715000D01*
X106203464Y-90745000D01*
X106176897Y-90603810D01*
X106093454Y-90474135D01*
X105966134Y-90387141D01*
X105930871Y-90380000D01*
X111761536Y-90380000D01*
X111761536Y-92080000D01*
X111788103Y-92221190D01*
X111871546Y-92350865D01*
X111998866Y-92437859D01*
X112150000Y-92468464D01*
X113850000Y-92468464D01*
X113991190Y-92441897D01*
X114120865Y-92358454D01*
X114207859Y-92231134D01*
X114238464Y-92080000D01*
X114238464Y-90380000D01*
X114211897Y-90238810D01*
X114128454Y-90109135D01*
X114001134Y-90022141D01*
X113850000Y-89991536D01*
X112150000Y-89991536D01*
X112008810Y-90018103D01*
X111879135Y-90101546D01*
X111792141Y-90228866D01*
X111761536Y-90380000D01*
X105930871Y-90380000D01*
X105815000Y-90356536D01*
X104545000Y-90356536D01*
X104403810Y-90383103D01*
X104274135Y-90466546D01*
X104187141Y-90593866D01*
X104161194Y-90722000D01*
X103480420Y-90722000D01*
X103238464Y-90480044D01*
X103238464Y-89110000D01*
X103211897Y-88968810D01*
X103128454Y-88839135D01*
X103001134Y-88752141D01*
X102850000Y-88721536D01*
X101150000Y-88721536D01*
X101008810Y-88748103D01*
X100879135Y-88831546D01*
X100792141Y-88958866D01*
X100761536Y-89110000D01*
X100761536Y-90810000D01*
X100788103Y-90951190D01*
X100871546Y-91080865D01*
X100998866Y-91167859D01*
X101150000Y-91198464D01*
X102520044Y-91198464D01*
X102910790Y-91589210D01*
X103075596Y-91699331D01*
X103107850Y-91705746D01*
X103270000Y-91738000D01*
X104160864Y-91738000D01*
X104183103Y-91856190D01*
X104187605Y-91863187D01*
X104187141Y-91863866D01*
X104156536Y-92015000D01*
X104156536Y-92985000D01*
X104183103Y-93126190D01*
X104187605Y-93133187D01*
X104187141Y-93133866D01*
X104156536Y-93285000D01*
X104156536Y-93312800D01*
X103459378Y-93312800D01*
X103143888Y-92997310D01*
X103161413Y-92971083D01*
X103255117Y-92500000D01*
X103161413Y-92028917D01*
X102894565Y-91629552D01*
X102495200Y-91362704D01*
X102024117Y-91269000D01*
X101975883Y-91269000D01*
X101504800Y-91362704D01*
X101105435Y-91629552D01*
X100838587Y-92028917D01*
X100744883Y-92500000D01*
X100838587Y-92971083D01*
X101105435Y-93370448D01*
X101473484Y-93616371D01*
X101041309Y-93840152D01*
X100655123Y-94298360D01*
X100524624Y-94613449D01*
X100456000Y-94613449D01*
X100456000Y-85844911D01*
X100490438Y-85671776D01*
X100563073Y-85563072D01*
X100671777Y-85490438D01*
X100844911Y-85456000D01*
X114155089Y-85456000D01*
X114328224Y-85490438D01*
X114328224Y-85490438D01*
G37*
X114328224Y-85490438D02*
X114436928Y-85563073D01*
X114509562Y-85671777D01*
X114544000Y-85844911D01*
X114544000Y-99155089D01*
X114509562Y-99328223D01*
X114436928Y-99436927D01*
X114328224Y-99509562D01*
X114155089Y-99544000D01*
X100844911Y-99544000D01*
X100671777Y-99509562D01*
X100563073Y-99436928D01*
X100490438Y-99328224D01*
X100456000Y-99155089D01*
X100456000Y-95466551D01*
X100524624Y-95466551D01*
X100655123Y-95781640D01*
X101041309Y-96239848D01*
X101573447Y-96515390D01*
X101809500Y-96392503D01*
X101809500Y-95230500D01*
X102190500Y-95230500D01*
X102190500Y-96392503D01*
X102426553Y-96515390D01*
X102958691Y-96239848D01*
X103344877Y-95781640D01*
X103475376Y-95466551D01*
X103350985Y-95230500D01*
X102190500Y-95230500D01*
X101809500Y-95230500D01*
X100649015Y-95230500D01*
X100524624Y-95466551D01*
X100456000Y-95466551D01*
X100456000Y-94613449D01*
X100524624Y-94613449D01*
X100649015Y-94849500D01*
X101809500Y-94849500D01*
X101809500Y-94829500D01*
X102190500Y-94829500D01*
X102190500Y-94849500D01*
X103350985Y-94849500D01*
X103475376Y-94613449D01*
X103344877Y-94298360D01*
X103284902Y-94227200D01*
X104156536Y-94227200D01*
X104156536Y-94255000D01*
X104183103Y-94396190D01*
X104266546Y-94525865D01*
X104393866Y-94612859D01*
X104545000Y-94643464D01*
X105815000Y-94643464D01*
X105956190Y-94616897D01*
X106085865Y-94533454D01*
X106172859Y-94406134D01*
X106203464Y-94255000D01*
X106203464Y-93285000D01*
X106176897Y-93143810D01*
X106172395Y-93136813D01*
X106172859Y-93136134D01*
X106203464Y-92985000D01*
X106203464Y-92957200D01*
X107940622Y-92957200D01*
X108242800Y-93259378D01*
X108242800Y-95423546D01*
X108086665Y-95579408D01*
X107976226Y-95845376D01*
X107975975Y-96133361D01*
X108085950Y-96399521D01*
X108289408Y-96603335D01*
X108555376Y-96713774D01*
X108843361Y-96714025D01*
X109109521Y-96604050D01*
X109313335Y-96400592D01*
X109423774Y-96134624D01*
X109424025Y-95846639D01*
X109314050Y-95580479D01*
X109157200Y-95423355D01*
X109157200Y-93770000D01*
X111744883Y-93770000D01*
X111838587Y-94241083D01*
X112105435Y-94640448D01*
X112504800Y-94907296D01*
X112975883Y-95001000D01*
X113024117Y-95001000D01*
X113495200Y-94907296D01*
X113894565Y-94640448D01*
X114161413Y-94241083D01*
X114255117Y-93770000D01*
X114161413Y-93298917D01*
X113894565Y-92899552D01*
X113495200Y-92632704D01*
X113024117Y-92539000D01*
X112975883Y-92539000D01*
X112504800Y-92632704D01*
X112105435Y-92899552D01*
X111838587Y-93298917D01*
X111744883Y-93770000D01*
X109157200Y-93770000D01*
X109157200Y-93070000D01*
X109122398Y-92895037D01*
X109023289Y-92746711D01*
X108453289Y-92176711D01*
X108304963Y-92077602D01*
X108130000Y-92042800D01*
X106203464Y-92042800D01*
X106203464Y-92015000D01*
X106176897Y-91873810D01*
X106172395Y-91866813D01*
X106172859Y-91866134D01*
X106203464Y-91715000D01*
X106203464Y-90745000D01*
X106176897Y-90603810D01*
X106093454Y-90474135D01*
X105966134Y-90387141D01*
X105930871Y-90380000D01*
X111761536Y-90380000D01*
X111761536Y-92080000D01*
X111788103Y-92221190D01*
X111871546Y-92350865D01*
X111998866Y-92437859D01*
X112150000Y-92468464D01*
X113850000Y-92468464D01*
X113991190Y-92441897D01*
X114120865Y-92358454D01*
X114207859Y-92231134D01*
X114238464Y-92080000D01*
X114238464Y-90380000D01*
X114211897Y-90238810D01*
X114128454Y-90109135D01*
X114001134Y-90022141D01*
X113850000Y-89991536D01*
X112150000Y-89991536D01*
X112008810Y-90018103D01*
X111879135Y-90101546D01*
X111792141Y-90228866D01*
X111761536Y-90380000D01*
X105930871Y-90380000D01*
X105815000Y-90356536D01*
X104545000Y-90356536D01*
X104403810Y-90383103D01*
X104274135Y-90466546D01*
X104187141Y-90593866D01*
X104161194Y-90722000D01*
X103480420Y-90722000D01*
X103238464Y-90480044D01*
X103238464Y-89110000D01*
X103211897Y-88968810D01*
X103128454Y-88839135D01*
X103001134Y-88752141D01*
X102850000Y-88721536D01*
X101150000Y-88721536D01*
X101008810Y-88748103D01*
X100879135Y-88831546D01*
X100792141Y-88958866D01*
X100761536Y-89110000D01*
X100761536Y-90810000D01*
X100788103Y-90951190D01*
X100871546Y-91080865D01*
X100998866Y-91167859D01*
X101150000Y-91198464D01*
X102520044Y-91198464D01*
X102910790Y-91589210D01*
X103075596Y-91699331D01*
X103107850Y-91705746D01*
X103270000Y-91738000D01*
X104160864Y-91738000D01*
X104183103Y-91856190D01*
X104187605Y-91863187D01*
X104187141Y-91863866D01*
X104156536Y-92015000D01*
X104156536Y-92985000D01*
X104183103Y-93126190D01*
X104187605Y-93133187D01*
X104187141Y-93133866D01*
X104156536Y-93285000D01*
X104156536Y-93312800D01*
X103459378Y-93312800D01*
X103143888Y-92997310D01*
X103161413Y-92971083D01*
X103255117Y-92500000D01*
X103161413Y-92028917D01*
X102894565Y-91629552D01*
X102495200Y-91362704D01*
X102024117Y-91269000D01*
X101975883Y-91269000D01*
X101504800Y-91362704D01*
X101105435Y-91629552D01*
X100838587Y-92028917D01*
X100744883Y-92500000D01*
X100838587Y-92971083D01*
X101105435Y-93370448D01*
X101473484Y-93616371D01*
X101041309Y-93840152D01*
X100655123Y-94298360D01*
X100524624Y-94613449D01*
X100456000Y-94613449D01*
X100456000Y-85844911D01*
X100490438Y-85671776D01*
X100563073Y-85563072D01*
X100671777Y-85490438D01*
X100844911Y-85456000D01*
X114155089Y-85456000D01*
X114328224Y-85490438D01*
M02*
